<?xml version="1.0" encoding="iso-8859-1"?>
<!-- Generator: Adobe Illustrator 19.0.0, SVG Export Plug-In . SVG Version: 6.00 Build 0)  -->
<svg xmlns="http://www.w3.org/2000/svg" xmlns:xlink="http://www.w3.org/1999/xlink" version="1.1" id="Layer_1" x="0px" y="0px" viewBox="0 0 469.333 469.333" style="enable-background:new 0 0 469.333 469.333;" xml:space="preserve" width="512px" height="512px">
<g>
	<g>
		<path d="M234.667,0C105.271,0,0,114.844,0,256v117.333C0,379.224,4.776,384,10.667,384h32v42.667    c0,23.531,19.135,42.667,42.667,42.667h32c5.896,0,10.667-4.771,10.667-10.667v-192c0-5.896-4.771-10.667-10.667-10.667h-32    c-23.531,0-42.667,19.135-42.667,42.667V256c0-117.635,86.135-213.333,192-213.333s192,95.698,192,213.333v42.667    C426.667,275.135,407.531,256,384,256h-32c-5.896,0-10.667,4.771-10.667,10.667v192c0,5.896,4.771,10.667,10.667,10.667h32    c23.531,0,42.667-19.135,42.667-42.667V384h32c5.891,0,10.667-4.776,10.667-10.667V256C469.333,114.844,364.063,0,234.667,0z" fill="#FFFFFF"/>
	</g>
</g>
<g>
</g>
<g>
</g>
<g>
</g>
<g>
</g>
<g>
</g>
<g>
</g>
<g>
</g>
<g>
</g>
<g>
</g>
<g>
</g>
<g>
</g>
<g>
</g>
<g>
</g>
<g>
</g>
<g>
</g>
</svg>
