<?xml version="1.0" encoding="iso-8859-1"?>
<!-- Generator: Adobe Illustrator 19.0.0, SVG Export Plug-In . SVG Version: 6.00 Build 0)  -->
<svg xmlns="http://www.w3.org/2000/svg" xmlns:xlink="http://www.w3.org/1999/xlink" version="1.1" id="Layer_1" x="0px" y="0px" viewBox="0 0 512 512" style="enable-background:new 0 0 512 512;" xml:space="preserve" width="512px" height="512px">
<g>
	<g>
		<g>
			<circle cx="256" cy="320" r="42.667" fill="#FFFFFF"/>
			<path d="M405.333,0H106.667C83.146,0,64,19.135,64,42.667v426.667C64,492.865,83.146,512,106.667,512h298.667     C428.854,512,448,492.865,448,469.333V42.667C448,19.135,428.854,0,405.333,0z M256,42.667c35.292,0,64,28.708,64,64     c0,35.292-28.708,64-64,64s-64-28.708-64-64C192,71.375,220.708,42.667,256,42.667z M256,448c-70.583,0-128-57.417-128-128     s57.417-128,128-128s128,57.417,128,128S326.583,448,256,448z" fill="#FFFFFF"/>
		</g>
	</g>
</g>
<g>
</g>
<g>
</g>
<g>
</g>
<g>
</g>
<g>
</g>
<g>
</g>
<g>
</g>
<g>
</g>
<g>
</g>
<g>
</g>
<g>
</g>
<g>
</g>
<g>
</g>
<g>
</g>
<g>
</g>
</svg>
